<svg xmlns="http://www.w3.org/2000/svg" viewBox="0 0 32 32">
  <defs>
    <linearGradient id="bg" x1="0%" y1="0%" x2="100%" y2="100%">
      <stop offset="0%" style="stop-color:#6366f1"/>
      <stop offset="100%" style="stop-color:#8b5cf6"/>
    </linearGradient>
  </defs>
  <!-- Background rounded square -->
  <rect width="32" height="32" rx="6" fill="url(#bg)"/>
  <!-- Feed icon - stylized document with validation checkmark -->
  <g fill="white">
    <!-- Document outline -->
    <path d="M8 6h10l6 6v14a2 2 0 0 1-2 2H8a2 2 0 0 1-2-2V8a2 2 0 0 1 2-2z" opacity="0.3"/>
    <path d="M9 7h9l5 5v13a1 1 0 0 1-1 1H9a1 1 0 0 1-1-1V8a1 1 0 0 1 1-1z" fill="white"/>
    <!-- Folded corner -->
    <path d="M18 7v5h5" fill="none" stroke="url(#bg)" stroke-width="1.5"/>
    <!-- Checkmark -->
    <path d="M11 17l3 3 6-6" fill="none" stroke="#22c55e" stroke-width="2.5" stroke-linecap="round" stroke-linejoin="round"/>
    <!-- Lines representing feed data -->
    <rect x="11" y="21" width="8" height="1.5" rx="0.75" fill="#6366f1" opacity="0.5"/>
  </g>
</svg>
